<?xml version="1.0" encoding="UTF-8"?>
<!DOCTYPE svg PUBLIC "-//W3C//DTD SVG 1.1//EN" "http://www.w3.org/Graphics/SVG/1.1/DTD/svg11.dtd">
<svg xmlns="http://www.w3.org/2000/svg" version="1.1" width="807px" height="309px" style="shape-rendering:geometricPrecision; text-rendering:geometricPrecision; image-rendering:optimizeQuality; fill-rule:evenodd; clip-rule:evenodd" xmlns:xlink="http://www.w3.org/1999/xlink">
<g><path style="opacity:0.767" fill="#5c99b3" d="M 207.5,28.5 C 202.752,27.2949 198.085,25.7949 193.5,24C 182.194,22.8649 170.861,22.3649 159.5,22.5C 169.314,20.0388 179.314,19.8722 189.5,22C 195.928,23.2637 201.928,25.4304 207.5,28.5 Z"/></g>
<g><path style="opacity:1" fill="#64686a" d="M 159.5,22.5 C 170.861,22.3649 182.194,22.8649 193.5,24C 198.085,25.7949 202.752,27.2949 207.5,28.5C 210.588,31.5589 214.255,33.8923 218.5,35.5C 221.215,39.3684 224.882,42.0351 229.5,43.5C 236.76,49.4277 242.094,56.761 245.5,65.5C 242.528,62.8562 239.861,59.8562 237.5,56.5C 236.757,57.9079 235.923,59.2412 235,60.5C 233.762,58.5653 233.262,56.5653 233.5,54.5C 230.407,55.2023 228.407,57.0356 227.5,60C 227.833,60.5 228.167,61 228.5,61.5C 229.451,60.6744 230.451,60.5078 231.5,61C 230.198,63.2129 229.198,65.5463 228.5,68C 230.483,70.0871 231.817,72.5871 232.5,75.5C 233.086,75.2907 233.586,74.9574 234,74.5C 234.333,76.1667 234.667,77.8333 235,79.5C 235.915,78.6721 236.581,77.6721 237,76.5C 237.179,73.4465 237.679,70.4465 238.5,67.5C 239.724,69.8275 239.724,72.1608 238.5,74.5C 239.723,75.6139 241.056,75.7805 242.5,75C 241.072,71.5259 241.572,71.0259 244,73.5C 243.764,78.127 243.264,82.7937 242.5,87.5C 246.997,86.0696 251.331,86.403 255.5,88.5C 251.893,89.4892 248.226,89.8226 244.5,89.5C 244.5,90.5 244.5,91.5 244.5,92.5C 249.628,93.3992 254.294,95.0658 258.5,97.5C 251.168,97.9328 244.502,96.2661 238.5,92.5C 236.403,88.1194 234.403,83.786 232.5,79.5C 224.581,60.5788 210.914,47.9121 191.5,41.5C 191.389,40.8826 191.056,40.3826 190.5,40C 182.367,38.4271 174.367,38.2604 166.5,39.5C 165.081,40.4511 163.415,40.7845 161.5,40.5C 152.954,40.7867 145.621,43.7867 139.5,49.5C 135.085,47.244 131.252,48.244 128,52.5C 126.599,50.8078 124.766,50.1412 122.5,50.5C 122.5,49.5 122.5,48.5 122.5,47.5C 121.127,47.6567 119.793,47.49 118.5,47C 120.017,45.3149 121.684,43.8149 123.5,42.5C 124.951,44.5589 126.951,45.5589 129.5,45.5C 129.5,44.1667 129.5,42.8333 129.5,41.5C 125.71,41.9923 125.044,41.159 127.5,39C 129.693,39.5697 131.693,39.2363 133.5,38C 133.167,37.6667 132.833,37.3333 132.5,37C 133.571,36.1482 134.571,35.3149 135.5,34.5C 135.5,33.5 135.5,32.5 135.5,31.5C 143.546,28.4705 151.546,25.4705 159.5,22.5 Z"/></g>
<g><path style="opacity:0.871" fill="#5a8da6" d="M 159.5,22.5 C 151.546,25.4705 143.546,28.4705 135.5,31.5C 135.5,32.5 135.5,33.5 135.5,34.5C 132.996,35.6392 130.33,36.3059 127.5,36.5C 136.794,28.9483 147.46,24.2816 159.5,22.5 Z"/></g>
<g><path style="opacity:1" fill="#5c8499" d="M 207.5,28.5 C 216.229,31.5253 223.562,36.5253 229.5,43.5C 224.882,42.0351 221.215,39.3684 218.5,35.5C 214.255,33.8923 210.588,31.5589 207.5,28.5 Z"/></g>
<g><path style="opacity:1" fill="#f1fbfd" d="M 417.5,37.5 C 421.514,35.6658 425.847,34.9992 430.5,35.5C 428.659,44.5328 426.659,53.5328 424.5,62.5C 422.499,69.575 420.499,76.575 418.5,83.5C 416.784,87.7963 414.95,92.1296 413,96.5C 412.503,98.8098 412.337,101.143 412.5,103.5C 412.452,106.313 411.785,108.979 410.5,111.5C 405.281,112.804 400.114,112.804 395,111.5C 390.066,94.6992 384.733,78.0325 379,61.5C 376.844,70.1945 374.011,78.5278 370.5,86.5C 369.414,86.62 368.747,87.2867 368.5,88.5C 366.186,95.6044 364.186,102.938 362.5,110.5C 358.5,110.5 354.5,110.5 350.5,110.5C 350.5,109.167 350.5,107.833 350.5,106.5C 349.5,106.5 348.5,106.5 347.5,106.5C 347.737,105.209 347.404,104.209 346.5,103.5C 338.792,80.7071 331.459,57.7071 324.5,34.5C 329.762,34.1953 334.928,34.5286 340,35.5C 345.535,52.4389 350.869,69.4389 356,86.5C 360.974,69.2462 366.141,52.0796 371.5,35C 376.533,34.1711 381.533,34.3377 386.5,35.5C 392.103,52.4745 397.603,69.4745 403,86.5C 407.702,70.0032 412.536,53.6698 417.5,37.5 Z"/></g>
<g><path style="opacity:1" fill="#f6fcfd" d="M 602.5,58.5 C 603.665,61.0219 604.998,61.0219 606.5,58.5C 610.094,57.5426 613.76,56.8759 617.5,56.5C 621.365,57.6545 625.365,58.3212 629.5,58.5C 636.835,62.1308 641.002,68.1308 642,76.5C 642.5,88.4954 642.667,100.495 642.5,112.5C 637.833,112.5 633.167,112.5 628.5,112.5C 628.667,100.495 628.5,88.4954 628,76.5C 627.502,74.4556 626.335,73.1223 624.5,72.5C 615.265,67.2492 608.265,69.2492 603.5,78.5C 602.505,89.3206 602.172,100.321 602.5,111.5C 598.5,111.5 594.5,111.5 590.5,111.5C 590.5,86.5 590.5,61.5 590.5,36.5C 594.167,36.5 597.833,36.5 601.5,36.5C 601.175,44.0191 601.508,51.3524 602.5,58.5 Z"/></g>
<g><path style="opacity:0.227" fill="#5fa4bd" d="M 166.5,39.5 C 174.367,38.2604 182.367,38.4271 190.5,40C 191.056,40.3826 191.389,40.8826 191.5,41.5C 183.258,39.8804 174.924,39.2138 166.5,39.5 Z"/></g>
<g><path style="opacity:1" fill="#abe6f8" d="M 424.5,62.5 C 426.659,53.5328 428.659,44.5328 430.5,35.5C 425.847,34.9992 421.514,35.6658 417.5,37.5C 417.5,36.5 417.5,35.5 417.5,34.5C 422.5,34.5 427.5,34.5 432.5,34.5C 430.744,44.206 428.077,53.5393 424.5,62.5 Z"/></g>
<g><path style="opacity:0.361" fill="#5da3be" d="M 161.5,40.5 C 153.769,42.36 146.436,45.36 139.5,49.5C 145.621,43.7867 152.954,40.7867 161.5,40.5 Z"/></g>
<g><path style="opacity:1" fill="#f9fdfd" d="M 569.5,63.5 C 571.402,62.4891 573.402,62.3224 575.5,63C 576.252,63.6708 576.586,64.5041 576.5,65.5C 576.5,68.8333 576.5,72.1667 576.5,75.5C 572.894,75.2108 569.394,75.5442 566,76.5C 566.212,83.1173 566.546,89.784 567,96.5C 571.103,99.9548 575.936,101.288 581.5,100.5C 582.409,103.789 583.409,107.122 584.5,110.5C 577.831,111.666 571.164,111.666 564.5,110.5C 559.223,108.221 556.223,104.221 555.5,98.5C 555.5,80.8333 555.5,63.1667 555.5,45.5C 556.568,44.5655 557.901,44.2322 559.5,44.5C 562.206,44.4249 564.873,44.0916 567.5,43.5C 566.874,50.5837 567.541,57.2504 569.5,63.5 Z"/></g>
<g><path style="opacity:0.898" fill="#5c96b0" d="M 127.5,36.5 C 121.167,42.1667 115.167,48.1667 109.5,54.5C 113.833,46.8333 119.833,40.8333 127.5,36.5 Z"/></g>
<g><path style="opacity:0.796" fill="#b0e6f9" d="M 629.5,58.5 C 625.365,58.3212 621.365,57.6545 617.5,56.5C 613.76,56.8759 610.094,57.5426 606.5,58.5C 614.205,53.1743 621.872,53.1743 629.5,58.5 Z"/></g>
<g><path style="opacity:0.631" fill="#a1e1f3" d="M 471.5,59.5 C 462.298,55.8869 452.964,55.5536 443.5,58.5C 451.468,53.918 459.801,53.418 468.5,57C 469.942,57.3768 470.942,58.2101 471.5,59.5 Z"/></g>
<g><path style="opacity:1" fill="#f4fcfd" d="M 471.5,59.5 C 483.451,66.4105 488.118,76.7438 485.5,90.5C 471.167,90.5 456.833,90.5 442.5,90.5C 442.343,91.8734 442.51,93.2068 443,94.5C 445.333,96.0062 447.5,97.6729 449.5,99.5C 458.538,100.264 467.538,101.264 476.5,102.5C 476.739,104.467 476.406,106.301 475.5,108C 459.927,117.545 445.761,115.712 433,102.5C 423.932,86.6199 426.099,72.4532 439.5,60C 440.745,59.2086 442.078,58.7086 443.5,58.5C 452.964,55.5536 462.298,55.8869 471.5,59.5 Z M 465.5,71.5 C 466.81,73.1477 468.143,74.8144 469.5,76.5C 460.853,77.6652 452.186,77.8319 443.5,77C 444.823,76.1841 445.489,75.0174 445.5,73.5C 451.778,69.1755 458.444,68.5088 465.5,71.5 Z"/></g>
<g><path style="opacity:1" fill="#f6fcfc" d="M 510.5,56.5 C 515.511,56.3341 520.511,56.5007 525.5,57C 528.026,59.5149 531.026,61.3483 534.5,62.5C 535.452,60.9547 535.785,59.288 535.5,57.5C 539.5,57.5 543.5,57.5 547.5,57.5C 547.5,75.5 547.5,93.5 547.5,111.5C 543.5,111.5 539.5,111.5 535.5,111.5C 535.667,100.828 535.5,90.1615 535,79.5C 533.713,75.7129 531.213,73.0462 527.5,71.5C 514.698,66.9962 507.031,71.3295 504.5,84.5C 506.62,96.8057 513.787,101.806 526,99.5C 527.139,102.583 528.472,105.583 530,108.5C 530.72,110.112 530.554,111.612 529.5,113C 519.613,115.73 510.28,114.397 501.5,109C 498.882,106.894 496.882,104.394 495.5,101.5C 492.983,93.3539 492.15,85.0206 493,76.5C 496.103,71.065 499.27,65.7316 502.5,60.5C 504.579,58.127 507.246,56.7936 510.5,56.5 Z"/></g>
<g><path style="opacity:0.655" fill="#aae5f8" d="M 569.5,63.5 C 567.541,57.2504 566.874,50.5837 567.5,43.5C 564.873,44.0916 562.206,44.4249 559.5,44.5C 562.051,43.5156 564.718,42.5156 567.5,41.5C 568.086,41.7093 568.586,42.0426 569,42.5C 568.397,49.5549 568.564,56.5549 569.5,63.5 Z"/></g>
<g><path style="opacity:1" fill="#f5fcfd" d="M 683.5,56.5 C 694.05,58.7162 700.717,65.0495 703.5,75.5C 703.5,80.5 703.5,85.5 703.5,90.5C 689.5,90.5 675.5,90.5 661.5,90.5C 661.273,92.9328 662.273,94.5994 664.5,95.5C 666.23,96.0256 667.564,97.0256 668.5,98.5C 668.611,99.1174 668.944,99.6174 669.5,100C 677.229,100.143 684.895,100.81 692.5,102C 693.406,103.699 693.739,105.533 693.5,107.5C 689.269,107.404 685.935,109.07 683.5,112.5C 677.131,112.653 670.797,112.32 664.5,111.5C 649.426,104.352 643.759,92.6858 647.5,76.5C 648.855,73.2316 650.688,72.8983 653,75.5C 652.695,73.5568 652.695,71.5568 653,69.5C 656.398,65.0367 660.565,61.37 665.5,58.5C 671.398,57.0434 677.398,56.3767 683.5,56.5 Z M 663.5,76.5 C 669.082,69.2403 676.082,67.7403 684.5,72C 685.833,73.3333 687.167,74.6667 688.5,76C 680.223,77.83 671.889,77.9967 663.5,76.5 Z"/></g>
<g><path style="opacity:1" fill="#f9fdfd" d="M 735.5,69.5 C 732.26,71.3922 729.26,73.7255 726.5,76.5C 725.21,77.0577 724.377,78.0577 724,79.5C 723.5,90.1615 723.333,100.828 723.5,111.5C 719.5,111.5 715.5,111.5 711.5,111.5C 711.5,93.5 711.5,75.5 711.5,57.5C 715.5,57.5 719.5,57.5 723.5,57.5C 723.5,58.5 723.5,59.5 723.5,60.5C 725.38,60.7709 726.713,60.1042 727.5,58.5C 728.514,57.3263 729.847,56.6596 731.5,56.5C 734.206,56.4249 736.873,56.0916 739.5,55.5C 739.5,59.8333 739.5,64.1667 739.5,68.5C 737.901,68.2322 736.568,68.5655 735.5,69.5 Z"/></g>
<g><path style="opacity:0.303" fill="#82d5f5" d="M 735.5,69.5 C 736.568,68.5655 737.901,68.2322 739.5,68.5C 739.5,64.1667 739.5,59.8333 739.5,55.5C 736.873,56.0916 734.206,56.4249 731.5,56.5C 734.219,55.087 737.219,54.4203 740.5,54.5C 740.263,58.722 740.596,62.8886 741.5,67C 741.355,67.772 741.022,68.4387 740.5,69C 738.866,69.4935 737.199,69.6602 735.5,69.5 Z"/></g>
<g><path style="opacity:1" fill="#c6eefa" d="M 683.5,56.5 C 677.398,56.3767 671.398,57.0434 665.5,58.5C 660.565,61.37 656.398,65.0367 653,69.5C 652.695,71.5568 652.695,73.5568 653,75.5C 650.688,72.8983 648.855,73.2316 647.5,76.5C 651.971,62.8286 661.471,55.4953 676,54.5C 678.821,54.4078 681.321,55.0744 683.5,56.5 Z"/></g>
<g><path style="opacity:0.508" fill="#9be1f9" d="M 555.5,45.5 C 555.5,63.1667 555.5,80.8333 555.5,98.5C 554.626,92.5063 553.959,86.3396 553.5,80C 554.749,69.1357 554.749,58.3023 553.5,47.5C 553.855,46.4777 554.522,45.811 555.5,45.5 Z"/></g>
<g><path style="opacity:0.464" fill="#b4e4f5" d="M 465.5,71.5 C 467.764,72.5813 469.931,73.9146 472,75.5C 472.617,76.4491 472.451,77.2825 471.5,78C 461.833,78.6667 452.167,78.6667 442.5,78C 441.663,76.9887 441.33,75.8221 441.5,74.5C 442.959,74.5674 444.292,74.2341 445.5,73.5C 445.489,75.0174 444.823,76.1841 443.5,77C 452.186,77.8319 460.853,77.6652 469.5,76.5C 468.143,74.8144 466.81,73.1477 465.5,71.5 Z"/></g>
<g><path style="opacity:1" fill="#cbf1fb" d="M 576.5,65.5 C 578.204,69.6175 579.537,73.9508 580.5,78.5C 576.446,77.8155 572.446,77.8155 568.5,78.5C 569.728,82.6404 569.728,86.807 568.5,91C 569.525,97.9328 573.359,100.099 580,97.5C 580.925,98.0465 581.758,98.7132 582.5,99.5C 583.974,103.731 584.974,108.064 585.5,112.5C 581.941,112.284 578.441,112.618 575,113.5C 571.243,112.971 567.743,111.971 564.5,110.5C 571.164,111.666 577.831,111.666 584.5,110.5C 583.409,107.122 582.409,103.789 581.5,100.5C 575.936,101.288 571.103,99.9548 567,96.5C 566.546,89.784 566.212,83.1173 566,76.5C 569.394,75.5442 572.894,75.2108 576.5,75.5C 576.5,72.1667 576.5,68.8333 576.5,65.5 Z"/></g>
<g><path style="opacity:1" fill="#d1f4fb" d="M 502.5,60.5 C 499.27,65.7316 496.103,71.065 493,76.5C 492.15,85.0206 492.983,93.3539 495.5,101.5C 488.153,90.9738 487.653,79.9738 494,68.5C 496.068,64.9295 498.901,62.2629 502.5,60.5 Z"/></g>
<g><path style="opacity:0.81" fill="#b1e7f6" d="M 527.5,71.5 C 531.213,73.0462 533.713,75.7129 535,79.5C 535.5,90.1615 535.667,100.828 535.5,111.5C 539.5,111.5 543.5,111.5 547.5,111.5C 547.5,93.5 547.5,75.5 547.5,57.5C 543.5,57.5 539.5,57.5 535.5,57.5C 535.785,59.288 535.452,60.9547 534.5,62.5C 531.026,61.3483 528.026,59.5149 525.5,57C 520.511,56.5007 515.511,56.3341 510.5,56.5C 518.513,53.6931 526.18,54.6931 533.5,59.5C 534.386,58.675 534.719,57.675 534.5,56.5C 537.867,56.5429 541.201,56.2096 544.5,55.5C 546.374,55.3898 547.874,56.0564 549,57.5C 549.667,75.5 549.667,93.5 549,111.5C 546.589,112.139 544.089,112.473 541.5,112.5C 538.636,112.614 535.97,112.114 533.5,111C 534.652,100.91 534.819,90.7438 534,80.5C 532.419,77.084 530.252,74.084 527.5,71.5 Z"/></g>
<g><path style="opacity:0.078" fill="#7ccef1" d="M 606.5,58.5 C 604.998,61.0219 603.665,61.0219 602.5,58.5C 602.5,50.8333 602.5,43.1667 602.5,35.5C 598.167,35.5 593.833,35.5 589.5,35.5C 589.5,60.8333 589.5,86.1667 589.5,111.5C 588.337,86.0033 588.17,60.3366 589,34.5C 589.667,33.8333 590.333,33.1667 591,32.5C 594.983,34.1032 599.15,34.7698 603.5,34.5C 604.518,42.8274 604.684,51.1607 604,59.5C 604.671,58.7476 605.504,58.4142 606.5,58.5 Z"/></g>
<g><path style="opacity:0.388" fill="#a8e2f7" d="M 418.5,83.5 C 417.072,90.4407 415.072,97.1074 412.5,103.5C 412.337,101.143 412.503,98.8098 413,96.5C 414.95,92.1296 416.784,87.7963 418.5,83.5 Z"/></g>
<g><path style="opacity:0.642" fill="#bbeafa" d="M 485.5,90.5 C 482.772,91.2052 479.939,91.8719 477,92.5C 466.228,91.1809 455.395,91.1809 444.5,92.5C 449.895,99.7027 456.728,101.369 465,97.5C 467.678,98.8362 470.511,99.6696 473.5,100C 474.942,100.377 475.942,101.21 476.5,102.5C 467.538,101.264 458.538,100.264 449.5,99.5C 447.5,97.6729 445.333,96.0062 443,94.5C 442.51,93.2068 442.343,91.8734 442.5,90.5C 456.833,90.5 471.167,90.5 485.5,90.5 Z"/></g>
<g><path style="opacity:0.621" fill="#b6ecfc" d="M 703.5,75.5 C 705.602,80.474 705.935,85.6406 704.5,91C 690.5,91.3333 676.5,91.6667 662.5,92C 663.823,92.8159 664.489,93.9826 664.5,95.5C 662.273,94.5994 661.273,92.9328 661.5,90.5C 675.5,90.5 689.5,90.5 703.5,90.5C 703.5,85.5 703.5,80.5 703.5,75.5 Z"/></g>
<g><path style="opacity:0.463" fill="#9ce6fd" d="M 727.5,58.5 C 726.713,60.1042 725.38,60.7709 723.5,60.5C 723.5,59.5 723.5,58.5 723.5,57.5C 719.5,57.5 715.5,57.5 711.5,57.5C 711.5,75.5 711.5,93.5 711.5,111.5C 715.5,111.5 719.5,111.5 723.5,111.5C 723.333,100.828 723.5,90.1615 724,79.5C 724.377,78.0577 725.21,77.0577 726.5,76.5C 726.005,78.4817 725.505,80.4817 725,82.5C 724.667,92.5 724.333,102.5 724,112.5C 720.818,112.238 717.484,112.571 714,113.5C 711.786,113.154 710.286,111.988 709.5,110C 709.989,92.4454 710.156,74.9454 710,57.5C 714.737,56.5308 719.57,56.1975 724.5,56.5C 724.351,57.552 724.517,58.552 725,59.5C 725.671,58.7476 726.504,58.4142 727.5,58.5 Z"/></g>
<g><path style="opacity:1" fill="#62727a" d="M 245.5,65.5 C 248.062,69.8306 250.062,74.4973 251.5,79.5C 265.263,81.7969 276.763,88.1302 286,98.5C 288.619,101.406 290.453,104.739 291.5,108.5C 288.917,106.039 286.417,103.372 284,100.5C 282.684,101.974 281.684,103.641 281,105.5C 276.999,100.56 272.666,99.8931 268,103.5C 267.517,102.552 267.351,101.552 267.5,100.5C 271.513,100.48 272.18,99.147 269.5,96.5C 271.013,95.1537 272.347,93.6537 273.5,92C 272.055,88.2766 269.389,85.9433 265.5,85C 260.489,84.4153 255.489,83.7486 250.5,83C 248.118,77.394 246.452,71.5606 245.5,65.5 Z"/></g>
<g><path style="opacity:1" fill="#598191" d="M 232.5,79.5 C 234.403,83.786 236.403,88.1194 238.5,92.5C 244.502,96.2661 251.168,97.9328 258.5,97.5C 262.333,98.4282 264.999,100.762 266.5,104.5C 257.787,99.8213 248.454,97.3213 238.5,97C 237.299,96.0975 236.465,94.9308 236,93.5C 234.768,88.834 233.601,84.1673 232.5,79.5 Z"/></g>
<g><path style="opacity:0.288" fill="#91d9f7" d="M 603.5,78.5 C 603.491,89.1088 603.825,99.7755 604.5,110.5C 604.132,111.91 603.299,112.91 602,113.5C 597.732,112.86 593.565,112.193 589.5,111.5C 589.833,111.5 590.167,111.5 590.5,111.5C 594.5,111.5 598.5,111.5 602.5,111.5C 602.172,100.321 602.505,89.3206 603.5,78.5 Z"/></g>
<g><path style="opacity:0.125" fill="#80ccea" d="M 624.5,72.5 C 626.335,73.1223 627.502,74.4556 628,76.5C 628.5,88.4954 628.667,100.495 628.5,112.5C 627.669,101.007 627.169,89.3405 627,77.5C 626.153,75.8068 625.32,74.1401 624.5,72.5 Z"/></g>
<g><path style="opacity:0.914" fill="#5b97b2" d="M 109.5,93.5 C 96.9907,93.8272 86.1574,98.4939 77,107.5C 75.1412,110.564 73.3079,113.564 71.5,116.5C 72.8862,109.92 76.2195,104.42 81.5,100C 86.1667,98.3333 90.8333,96.6667 95.5,95C 100.215,94.7188 104.882,94.2188 109.5,93.5 Z"/></g>
<g><path style="opacity:1" fill="#64696c" d="M 135.5,34.5 C 134.571,35.3149 133.571,36.1482 132.5,37C 132.833,37.3333 133.167,37.6667 133.5,38C 131.693,39.2363 129.693,39.5697 127.5,39C 125.044,41.159 125.71,41.9923 129.5,41.5C 129.5,42.8333 129.5,44.1667 129.5,45.5C 126.951,45.5589 124.951,44.5589 123.5,42.5C 121.684,43.8149 120.017,45.3149 118.5,47C 119.793,47.49 121.127,47.6567 122.5,47.5C 122.5,48.5 122.5,49.5 122.5,50.5C 124.766,50.1412 126.599,50.8078 128,52.5C 131.252,48.244 135.085,47.244 139.5,49.5C 126.004,59.1756 117.504,72.1756 114,88.5C 112.953,90.7075 111.453,92.3742 109.5,93.5C 104.882,94.2188 100.215,94.7188 95.5,95C 90.8333,96.6667 86.1667,98.3333 81.5,100C 76.2195,104.42 72.8862,109.92 71.5,116.5C 70.8826,116.611 70.3826,116.944 70,117.5C 67.8575,124.366 68.0241,131.032 70.5,137.5C 72.986,144.461 76.986,150.461 82.5,155.5C 81.1266,155.657 79.7932,155.49 78.5,155C 75.7839,151.739 72.9506,148.572 70,145.5C 70.8782,149.229 72.0449,152.896 73.5,156.5C 71.8762,156.64 70.7096,155.973 70,154.5C 69.342,156.108 69.842,157.275 71.5,158C 70.552,158.483 69.552,158.649 68.5,158.5C 68.5,159.833 68.5,161.167 68.5,162.5C 70.7505,162.181 72.7505,162.681 74.5,164C 71.9849,164.939 71.3183,166.439 72.5,168.5C 71.8333,168.5 71.1667,168.5 70.5,168.5C 69.454,165.81 68.454,163.143 67.5,160.5C 65.5,159.833 63.5,159.167 61.5,158.5C 59.5671,152.971 56.9004,147.971 53.5,143.5C 53.5,143.167 53.5,142.833 53.5,142.5C 53.3994,132.148 53.7327,121.815 54.5,111.5C 61.8737,91.4744 76.207,79.8078 97.5,76.5C 100.205,68.3164 104.205,60.9831 109.5,54.5C 115.167,48.1667 121.167,42.1667 127.5,36.5C 130.33,36.3059 132.996,35.6392 135.5,34.5 Z"/></g>
<g><path style="opacity:0.867" fill="#d8fbff" d="M 602.5,58.5 C 601.508,51.3524 601.175,44.0191 601.5,36.5C 597.833,36.5 594.167,36.5 590.5,36.5C 590.5,61.5 590.5,86.5 590.5,111.5C 590.167,111.5 589.833,111.5 589.5,111.5C 589.5,86.1667 589.5,60.8333 589.5,35.5C 593.833,35.5 598.167,35.5 602.5,35.5C 602.5,43.1667 602.5,50.8333 602.5,58.5 Z"/></g>
<g><path style="opacity:1" fill="#bbebf9" d="M 683.5,112.5 C 685.935,109.07 689.269,107.404 693.5,107.5C 693.739,105.533 693.406,103.699 692.5,102C 684.895,100.81 677.229,100.143 669.5,100C 668.944,99.6174 668.611,99.1174 668.5,98.5C 673.776,100.029 678.943,99.6952 684,97.5C 688.53,99.2855 693.03,100.952 697.5,102.5C 697.607,104.903 696.607,106.736 694.5,108C 691.271,110.616 687.604,112.116 683.5,112.5 Z"/></g>
<g><path style="opacity:1" fill="#caf3fd" d="M 370.5,86.5 C 368.979,95.3954 366.645,104.062 363.5,112.5C 358.833,113.833 354.167,113.833 349.5,112.5C 347.506,109.85 346.506,106.85 346.5,103.5C 347.404,104.209 347.737,105.209 347.5,106.5C 348.5,106.5 349.5,106.5 350.5,106.5C 350.5,107.833 350.5,109.167 350.5,110.5C 354.5,110.5 358.5,110.5 362.5,110.5C 364.186,102.938 366.186,95.6044 368.5,88.5C 368.747,87.2867 369.414,86.62 370.5,86.5 Z"/></g>
<g><path style="opacity:0.776" fill="#a5e1f7" d="M 664.5,111.5 C 670.797,112.32 677.131,112.653 683.5,112.5C 677.01,115.398 670.677,115.065 664.5,111.5 Z"/></g>
<g><path style="opacity:0.706" fill="#427cef" d="M 563.5,127.5 C 554.402,126.185 545.402,126.185 536.5,127.5C 535.5,128.833 534.5,130.167 533.5,131.5C 533.549,128.901 534.549,126.734 536.5,125C 545.167,124.333 553.833,124.333 562.5,125C 563.252,125.671 563.586,126.504 563.5,127.5 Z"/></g>
<g><path style="opacity:1" fill="#1a2ed3" d="M 536.5,127.5 C 545.402,126.185 554.402,126.185 563.5,127.5C 566.267,131.374 568.267,135.707 569.5,140.5C 565.898,137.024 563.231,132.858 561.5,128C 553.173,127.5 544.84,127.334 536.5,127.5 Z"/></g>
<g><path style="opacity:1" fill="#0a12e2" d="M 462.5,126.5 C 462.5,171.833 462.5,217.167 462.5,262.5C 455.833,262.5 449.167,262.5 442.5,262.5C 442.667,230.165 442.5,197.832 442,165.5C 440.933,164.809 439.766,164.309 438.5,164C 440.421,162.759 440.754,161.259 439.5,159.5C 437.834,161.333 435.834,162.666 433.5,163.5C 435.447,165.276 435.78,167.276 434.5,169.5C 432.171,168.229 431.005,166.229 431,163.5C 430.667,165.5 430.333,167.5 430,169.5C 429.818,166.774 429.318,164.107 428.5,161.5C 427.833,162.167 427.167,162.833 426.5,163.5C 424.993,161.31 422.993,159.976 420.5,159.5C 420.281,158.325 420.614,157.325 421.5,156.5C 424.595,158.114 427.261,157.614 429.5,155C 429.256,151.191 428.923,147.358 428.5,143.5C 431.564,140.038 433.564,136.038 434.5,131.5C 435.496,131.586 436.329,131.252 437,130.5C 437.309,129.234 437.809,128.067 438.5,127C 446.493,126.5 454.493,126.334 462.5,126.5 Z"/></g>
<g><path style="opacity:1" fill="#0b13e1" d="M 637.5,126.5 C 645.586,126.199 653.586,126.533 661.5,127.5C 662.352,133.769 665.352,138.769 670.5,142.5C 670.5,145.167 670.5,147.833 670.5,150.5C 674.158,150.324 675.158,151.824 673.5,155C 674.506,156.338 675.506,157.671 676.5,159C 673.507,159.427 673.007,160.594 675,162.5C 676,161.5 677,160.5 678,159.5C 678.711,161.899 678.544,164.232 677.5,166.5C 679.003,167.052 680.669,167.052 682.5,166.5C 682.586,168.677 683.253,170.677 684.5,172.5C 687.524,175.938 690.524,179.271 693.5,182.5C 694.368,186.088 695.702,189.588 697.5,193C 697.241,194.261 696.574,195.261 695.5,196C 696.935,195.689 698.268,195.855 699.5,196.5C 702.202,200.064 704.535,203.897 706.5,208C 705.852,209.44 705.519,210.94 705.5,212.5C 707.292,212.366 708.958,212.699 710.5,213.5C 710.167,215.5 709.833,217.5 709.5,219.5C 707.837,217.51 705.837,215.843 703.5,214.5C 701.717,216.023 701.051,218.023 701.5,220.5C 702.5,220.5 703.5,220.5 704.5,220.5C 704.99,222.948 704.157,224.615 702,225.5C 700.287,224.046 699.12,222.212 698.5,220C 697.552,219.517 696.552,219.351 695.5,219.5C 696.088,223.75 697.922,227.417 701,230.5C 701.483,231.448 701.649,232.448 701.5,233.5C 700.5,233.5 699.5,233.5 698.5,233.5C 698.321,229.791 696.654,227.124 693.5,225.5C 692.432,224.566 691.099,224.232 689.5,224.5C 689.5,224.167 689.5,223.833 689.5,223.5C 689.13,220.733 687.796,218.733 685.5,217.5C 684.4,216.395 683.733,215.062 683.5,213.5C 682.948,209.876 681.615,206.543 679.5,203.5C 678.412,202.066 677.078,201.066 675.5,200.5C 675.5,200.167 675.5,199.833 675.5,199.5C 675.611,198.883 675.944,198.383 676.5,198C 674.031,194.001 671.698,189.834 669.5,185.5C 669.043,184.702 668.376,184.369 667.5,184.5C 667.158,183.662 666.492,183.328 665.5,183.5C 664.833,182.167 664.167,180.833 663.5,179.5C 663.25,177.326 662.25,175.659 660.5,174.5C 660.443,173.391 660.11,172.391 659.5,171.5C 658.833,170.167 658.167,170.167 657.5,171.5C 656.502,201.662 656.169,231.995 656.5,262.5C 650.833,262.5 645.167,262.5 639.5,262.5C 639.719,261.325 639.386,260.325 638.5,259.5C 638.002,260.603 637.669,261.603 637.5,262.5C 636.173,217.099 636.173,171.766 637.5,126.5 Z"/></g>
<g><path style="opacity:1" fill="#0b13e1" d="M 714.5,263.5 C 713.71,262.599 712.71,261.932 711.5,261.5C 709.137,258.451 707.137,255.118 705.5,251.5C 705.583,247.465 703.917,244.465 700.5,242.5C 698.369,236.779 696.036,231.112 693.5,225.5C 696.654,227.124 698.321,229.791 698.5,233.5C 699.5,233.5 700.5,233.5 701.5,233.5C 701.649,232.448 701.483,231.448 701,230.5C 697.922,227.417 696.088,223.75 695.5,219.5C 696.552,219.351 697.552,219.517 698.5,220C 699.12,222.212 700.287,224.046 702,225.5C 704.157,224.615 704.99,222.948 704.5,220.5C 703.5,220.5 702.5,220.5 701.5,220.5C 701.051,218.023 701.717,216.023 703.5,214.5C 705.837,215.843 707.837,217.51 709.5,219.5C 712.004,220.639 714.67,221.306 717.5,221.5C 717.5,189.833 717.5,158.167 717.5,126.5C 724.5,126.5 731.5,126.5 738.5,126.5C 738.5,172.167 738.5,217.833 738.5,263.5C 730.5,263.5 722.5,263.5 714.5,263.5 Z"/></g>
<g><path style="opacity:0.455" fill="#5b97ae" d="M 71.5,116.5 C 69.4258,123.423 69.0925,130.423 70.5,137.5C 68.0241,131.032 67.8575,124.366 70,117.5C 70.3826,116.944 70.8826,116.611 71.5,116.5 Z"/></g>
<g><path style="opacity:0.997" fill="#0b28d0" d="M 325.5,125.5 C 334.525,125.168 343.525,125.502 352.5,126.5C 355.026,129.557 357.026,132.891 358.5,136.5C 354.854,134.35 352.187,131.35 350.5,127.5C 342.528,126.502 334.528,126.169 326.5,126.5C 326.5,172.167 326.5,217.833 326.5,263.5C 333.5,263.5 340.5,263.5 347.5,263.5C 347.168,231.996 347.502,200.662 348.5,169.5C 348.5,201.167 348.5,232.833 348.5,264.5C 340.833,264.5 333.167,264.5 325.5,264.5C 325.5,218.167 325.5,171.833 325.5,125.5 Z"/></g>
<g><path style="opacity:0.972" fill="#0433d0" d="M 634.5,125.5 C 643.895,124.862 652.895,125.529 661.5,127.5C 653.586,126.533 645.586,126.199 637.5,126.5C 635.505,172.155 634.838,218.155 635.5,264.5C 634.501,218.336 634.168,172.003 634.5,125.5 Z"/></g>
<g><path style="opacity:1" fill="#0120cb" d="M 716.5,125.5 C 724.167,125.5 731.833,125.5 739.5,125.5C 739.5,171.833 739.5,218.167 739.5,264.5C 730.983,264.826 722.65,264.493 714.5,263.5C 722.5,263.5 730.5,263.5 738.5,263.5C 738.5,217.833 738.5,172.167 738.5,126.5C 731.5,126.5 724.5,126.5 717.5,126.5C 717.5,158.167 717.5,189.833 717.5,221.5C 714.67,221.306 712.004,220.639 709.5,219.5C 709.833,217.5 710.167,215.5 710.5,213.5C 711.167,213.833 711.833,214.167 712.5,214.5C 713.338,214.842 713.672,215.508 713.5,216.5C 713.685,218.196 714.519,219.529 716,220.5C 716.5,188.835 716.667,157.168 716.5,125.5 Z"/></g>
<g><path style="opacity:0.953" fill="#54899c" d="M 54.5,111.5 C 53.7327,121.815 53.3994,132.148 53.5,142.5C 51.9669,138.104 51.3002,133.437 51.5,128.5C 51.0697,122.444 52.0697,116.778 54.5,111.5 Z"/></g>
<g><path style="opacity:1" fill="#5d8494" d="M 291.5,108.5 C 300.269,126.357 299.102,143.691 288,160.5C 285.63,163.039 283.13,165.372 280.5,167.5C 280.436,162.571 282.77,159.904 287.5,159.5C 287.128,156.978 287.961,154.978 290,153.5C 290.741,150.438 290.575,147.438 289.5,144.5C 289.833,144.167 290.167,143.833 290.5,143.5C 291.167,144.167 291.833,144.833 292.5,145.5C 293.547,144.078 293.547,142.578 292.5,141C 293.738,136.81 294.404,132.477 294.5,128C 294.333,124.167 294.167,120.333 294,116.5C 292.293,114.091 291.46,111.425 291.5,108.5 Z"/></g>
<g><path style="opacity:1" fill="#2b44de" d="M 661.5,127.5 C 664.89,132.233 667.89,137.233 670.5,142.5C 665.352,138.769 662.352,133.769 661.5,127.5 Z"/></g>
<g><path style="opacity:1" fill="#3853d9" d="M 434.5,131.5 C 433.564,136.038 431.564,140.038 428.5,143.5C 427.833,143.5 427.167,143.5 426.5,143.5C 428.673,139.148 431.34,135.148 434.5,131.5 Z"/></g>
<g><path style="opacity:0.565" fill="#316aef" d="M 716.5,125.5 C 716.667,157.168 716.5,188.835 716,220.5C 714.519,219.529 713.685,218.196 713.5,216.5C 714.117,216.611 714.617,216.944 715,217.5C 714.971,186.705 715.471,156.038 716.5,125.5 Z"/></g>
<g><path style="opacity:1" fill="#0b13e2" d="M 536.5,127.5 C 544.84,127.334 553.173,127.5 561.5,128C 563.231,132.858 565.898,137.024 569.5,140.5C 569.678,143.216 570.178,145.883 571,148.5C 571.671,149.252 572.504,149.586 573.5,149.5C 574.147,155.298 575.814,160.798 578.5,166C 577.574,169.139 577.408,172.306 578,175.5C 578.576,172.876 579.91,172.209 582,173.5C 583.406,175.364 583.906,177.197 583.5,179C 582.833,179.667 582.167,180.333 581.5,181C 583.019,182.351 584.352,183.851 585.5,185.5C 584.923,187.55 583.59,188.55 581.5,188.5C 581.5,186.833 581.5,185.167 581.5,183.5C 580.167,183.5 578.833,183.5 577.5,183.5C 577.785,181.712 577.452,180.045 576.5,178.5C 575.749,179.376 575.249,180.376 575,181.5C 573.815,179.623 572.815,177.623 572,175.5C 569.782,177.388 569.282,179.555 570.5,182C 571.448,182.483 572.448,182.649 573.5,182.5C 573.167,185.5 574.5,186.833 577.5,186.5C 577.97,189.346 577.137,191.679 575,193.5C 574.773,190.94 573.44,189.274 571,188.5C 568.977,190.013 569.144,191.346 571.5,192.5C 570.758,193.287 569.925,193.953 569,194.5C 567.934,189.309 566.434,184.309 564.5,179.5C 563.473,180.791 562.473,180.791 561.5,179.5C 560.962,177.883 560.629,176.216 560.5,174.5C 559.5,174.5 558.5,174.5 557.5,174.5C 555.895,171.622 554.561,168.622 553.5,165.5C 553.598,163.447 552.931,161.78 551.5,160.5C 551.66,158.801 551.494,157.134 551,155.5C 549.244,154.015 548.077,154.348 547.5,156.5C 546.732,157.263 546.232,158.263 546,159.5C 545.667,159.167 545.333,158.833 545,158.5C 544.152,161.56 543.152,164.56 542,167.5C 539.507,168.946 537.673,168.279 536.5,165.5C 535.833,162.833 535.167,160.167 534.5,157.5C 530.785,159.465 530.618,161.798 534,164.5C 534.638,167.536 534.472,170.536 533.5,173.5C 534.814,174.986 535.814,176.653 536.5,178.5C 535.106,180.646 534.44,182.979 534.5,185.5C 533.5,185.5 532.5,185.5 531.5,185.5C 532.021,189.73 530.854,193.396 528,196.5C 523.318,193.693 518.984,194.36 515,198.5C 513.986,202.099 513.153,205.765 512.5,209.5C 511.833,209.167 511.167,208.833 510.5,208.5C 509.77,210.341 509.103,212.175 508.5,214C 507.551,214.617 506.718,214.451 506,213.5C 505.505,211.527 505.338,209.527 505.5,207.5C 506.675,207.719 507.675,207.386 508.5,206.5C 510.721,203.209 511.887,199.543 512,195.5C 513.699,191.79 515.866,188.29 518.5,185C 516.491,183.818 514.491,183.318 512.5,183.5C 513.265,180.904 513.599,178.237 513.5,175.5C 515.057,174.534 516.39,173.2 517.5,171.5C 521.696,164.715 524.362,157.381 525.5,149.5C 525.5,149.167 525.5,148.833 525.5,148.5C 528.63,148.401 531.296,147.234 533.5,145C 532.5,144.167 531.5,143.333 530.5,142.5C 532.281,139.044 533.281,135.378 533.5,131.5C 534.5,130.167 535.5,128.833 536.5,127.5 Z"/></g>
<g><path style="opacity:1" fill="#2234dc" d="M 533.5,131.5 C 533.281,135.378 532.281,139.044 530.5,142.5C 531.5,143.333 532.5,144.167 533.5,145C 531.296,147.234 528.63,148.401 525.5,148.5C 527.411,142.413 530.077,136.747 533.5,131.5 Z"/></g>
<g><path style="opacity:0.29" fill="#48a2fa" d="M 362.5,142.5 C 363.906,142.973 364.573,143.973 364.5,145.5C 363.094,145.027 362.427,144.027 362.5,142.5 Z"/></g>
<g><path style="opacity:0.281" fill="#51affc" d="M 739.5,125.5 C 741.319,168.323 741.819,211.323 741,254.5C 740.823,258.356 740.323,262.023 739.5,265.5C 739.5,265.167 739.5,264.833 739.5,264.5C 739.5,218.167 739.5,171.833 739.5,125.5 Z"/></g>
<g><path style="opacity:1" fill="#5d7b89" d="M 266.5,104.5 C 269.138,106.122 271.804,107.789 274.5,109.5C 280.95,121.143 282.283,133.476 278.5,146.5C 282.056,146.275 282.39,147.108 279.5,149C 281.162,150.94 280.829,151.606 278.5,151C 277.953,150.075 277.287,149.242 276.5,148.5C 272.204,152.129 268.204,156.129 264.5,160.5C 262.382,161.946 260.049,162.613 257.5,162.5C 258.167,161.833 258.833,161.167 259.5,160.5C 276.686,150.776 282.186,136.442 276,117.5C 273.775,112.447 270.608,108.114 266.5,104.5 Z"/></g>
<g><path style="opacity:0.424" fill="#4d8bf9" d="M 426.5,143.5 C 425.617,146.704 423.95,149.371 421.5,151.5C 422.383,148.296 424.05,145.629 426.5,143.5 Z"/></g>
<g><path style="opacity:1" fill="#3052e2" d="M 569.5,140.5 C 571.204,143.256 572.537,146.256 573.5,149.5C 572.504,149.586 571.671,149.252 571,148.5C 570.178,145.883 569.678,143.216 569.5,140.5 Z"/></g>
<g><path style="opacity:1" fill="#2f50dd" d="M 358.5,136.5 C 360.326,138.147 361.66,140.147 362.5,142.5C 362.427,144.027 363.094,145.027 364.5,145.5C 366.664,147.822 368.331,150.489 369.5,153.5C 366.854,151.521 364.521,149.188 362.5,146.5C 361.912,144.089 360.745,142.089 359,140.5C 358.51,139.207 358.343,137.873 358.5,136.5 Z"/></g>
<g><path style="opacity:1" fill="#375ae1" d="M 551.5,160.5 C 550.685,159.571 549.852,158.571 549,157.5C 548.768,158.737 548.268,159.737 547.5,160.5C 547.5,159.167 547.5,157.833 547.5,156.5C 548.077,154.348 549.244,154.015 551,155.5C 551.494,157.134 551.66,158.801 551.5,160.5 Z"/></g>
<g><path style="opacity:1" fill="#3e66e6" d="M 421.5,151.5 C 420.217,153.606 419.384,155.94 419,158.5C 417.887,159.305 416.721,159.972 415.5,160.5C 416.759,156.975 418.759,153.975 421.5,151.5 Z"/></g>
<g><path style="opacity:1" fill="#2437dc" d="M 670.5,142.5 C 678.669,155.499 686.335,168.832 693.5,182.5C 690.524,179.271 687.524,175.938 684.5,172.5C 683.253,170.677 682.586,168.677 682.5,166.5C 680.669,167.052 679.003,167.052 677.5,166.5C 678.544,164.232 678.711,161.899 678,159.5C 677,160.5 676,161.5 675,162.5C 673.007,160.594 673.507,159.427 676.5,159C 675.506,157.671 674.506,156.338 673.5,155C 675.158,151.824 674.158,150.324 670.5,150.5C 670.5,147.833 670.5,145.167 670.5,142.5 Z"/></g>
<g><path style="opacity:1" fill="#0a19db" d="M 462.5,126.5 C 463.499,172.33 463.832,218.33 463.5,264.5C 456.167,264.5 448.833,264.5 441.5,264.5C 441.832,232.329 441.498,200.329 440.5,168.5C 440.565,168.062 440.399,167.728 440,167.5C 438.579,169.405 437.412,171.405 436.5,173.5C 436.573,175.027 435.906,176.027 434.5,176.5C 433.833,176.5 433.5,176.167 433.5,175.5C 432.878,172.224 430.878,170.891 427.5,171.5C 427.5,172.833 427.5,174.167 427.5,175.5C 425.473,175.662 423.473,175.495 421.5,175C 422.833,174.667 424.167,174.333 425.5,174C 422.167,173.667 418.833,173.333 415.5,173C 414.382,171.926 413.382,170.76 412.5,169.5C 411.817,169.863 411.15,170.196 410.5,170.5C 410.5,169.833 410.5,169.167 410.5,168.5C 411.906,168.027 412.573,167.027 412.5,165.5C 412.75,163.326 413.75,161.659 415.5,160.5C 416.721,159.972 417.887,159.305 419,158.5C 419.384,155.94 420.217,153.606 421.5,151.5C 423.95,149.371 425.617,146.704 426.5,143.5C 427.167,143.5 427.833,143.5 428.5,143.5C 428.923,147.358 429.256,151.191 429.5,155C 427.261,157.614 424.595,158.114 421.5,156.5C 420.614,157.325 420.281,158.325 420.5,159.5C 422.993,159.976 424.993,161.31 426.5,163.5C 427.167,162.833 427.833,162.167 428.5,161.5C 429.318,164.107 429.818,166.774 430,169.5C 430.333,167.5 430.667,165.5 431,163.5C 431.005,166.229 432.171,168.229 434.5,169.5C 435.78,167.276 435.447,165.276 433.5,163.5C 435.834,162.666 437.834,161.333 439.5,159.5C 440.754,161.259 440.421,162.759 438.5,164C 439.766,164.309 440.933,164.809 442,165.5C 442.5,197.832 442.667,230.165 442.5,262.5C 449.167,262.5 455.833,262.5 462.5,262.5C 462.5,217.167 462.5,171.833 462.5,126.5 Z"/></g>
<g><path style="opacity:0.125" fill="#56a0fc" d="M 551.5,160.5 C 552.931,161.78 553.598,163.447 553.5,165.5C 552.069,164.22 551.402,162.553 551.5,160.5 Z"/></g>
<g><path style="opacity:1" fill="#58889a" d="M 53.5,143.5 C 56.9004,147.971 59.5671,152.971 61.5,158.5C 63.5,159.167 65.5,159.833 67.5,160.5C 68.454,163.143 69.454,165.81 70.5,168.5C 66.5664,166.402 63.3997,163.402 61,159.5C 57.685,154.537 55.185,149.204 53.5,143.5 Z"/></g>
<g><path style="opacity:1" fill="#2f4fde" d="M 369.5,153.5 C 372.579,156.65 374.913,160.317 376.5,164.5C 375.833,164.5 375.167,164.5 374.5,164.5C 372.022,161.211 370.356,157.544 369.5,153.5 Z"/></g>
<g><path style="opacity:1" fill="#243eda" d="M 525.5,149.5 C 524.362,157.381 521.696,164.715 517.5,171.5C 516.39,173.2 515.057,174.534 513.5,175.5C 516.99,166.525 520.99,157.858 525.5,149.5 Z"/></g>
<g><path style="opacity:0.361" fill="#4a90f9" d="M 547.5,160.5 C 547.34,162.153 546.674,163.486 545.5,164.5C 545.229,162.62 545.896,161.287 547.5,160.5 Z"/></g>
<g><path style="opacity:1" fill="#656666" d="M 245.5,65.5 C 246.452,71.5606 248.118,77.394 250.5,83C 255.489,83.7486 260.489,84.4153 265.5,85C 269.389,85.9433 272.055,88.2766 273.5,92C 272.347,93.6537 271.013,95.1537 269.5,96.5C 272.18,99.147 271.513,100.48 267.5,100.5C 267.351,101.552 267.517,102.552 268,103.5C 272.666,99.8931 276.999,100.56 281,105.5C 281.684,103.641 282.684,101.974 284,100.5C 286.417,103.372 288.917,106.039 291.5,108.5C 291.46,111.425 292.293,114.091 294,116.5C 294.167,120.333 294.333,124.167 294.5,128C 294.404,132.477 293.738,136.81 292.5,141C 293.547,142.578 293.547,144.078 292.5,145.5C 291.833,144.833 291.167,144.167 290.5,143.5C 290.167,143.833 289.833,144.167 289.5,144.5C 290.575,147.438 290.741,150.438 290,153.5C 287.961,154.978 287.128,156.978 287.5,159.5C 282.77,159.904 280.436,162.571 280.5,167.5C 278.302,168.014 276.302,169.014 274.5,170.5C 273.387,168.969 271.887,167.969 270,167.5C 269.167,167.833 268.333,168.167 267.5,168.5C 268.689,169.429 270.022,169.762 271.5,169.5C 271.5,170.833 271.5,172.167 271.5,173.5C 267.322,174.226 263.322,175.559 259.5,177.5C 253.202,178.496 246.868,178.83 240.5,178.5C 193.5,178.5 146.5,178.5 99.5,178.5C 99.6495,177.448 99.4828,176.448 99,175.5C 98.6667,175.833 98.3333,176.167 98,176.5C 96.1806,174.464 94.3473,174.297 92.5,176C 89.5184,176.498 86.5184,176.665 83.5,176.5C 80.3781,173.104 76.7114,170.437 72.5,168.5C 71.3183,166.439 71.9849,164.939 74.5,164C 72.7505,162.681 70.7505,162.181 68.5,162.5C 68.5,161.167 68.5,159.833 68.5,158.5C 69.552,158.649 70.552,158.483 71.5,158C 69.842,157.275 69.342,156.108 70,154.5C 70.7096,155.973 71.8762,156.64 73.5,156.5C 72.0449,152.896 70.8782,149.229 70,145.5C 72.9506,148.572 75.7839,151.739 78.5,155C 79.7932,155.49 81.1266,155.657 82.5,155.5C 85.2783,160.472 89.6116,162.972 95.5,163C 149.541,163.825 203.541,163.658 257.5,162.5C 260.049,162.613 262.382,161.946 264.5,160.5C 268.204,156.129 272.204,152.129 276.5,148.5C 277.287,149.242 277.953,150.075 278.5,151C 280.829,151.606 281.162,150.94 279.5,149C 282.39,147.108 282.056,146.275 278.5,146.5C 282.283,133.476 280.95,121.143 274.5,109.5C 271.804,107.789 269.138,106.122 266.5,104.5C 264.999,100.762 262.333,98.4282 258.5,97.5C 254.294,95.0658 249.628,93.3992 244.5,92.5C 244.5,91.5 244.5,90.5 244.5,89.5C 248.226,89.8226 251.893,89.4892 255.5,88.5C 251.331,86.403 246.997,86.0696 242.5,87.5C 243.264,82.7937 243.764,78.127 244,73.5C 241.572,71.0259 241.072,71.5259 242.5,75C 241.056,75.7805 239.723,75.6139 238.5,74.5C 239.724,72.1608 239.724,69.8275 238.5,67.5C 237.679,70.4465 237.179,73.4465 237,76.5C 236.581,77.6721 235.915,78.6721 235,79.5C 234.667,77.8333 234.333,76.1667 234,74.5C 233.586,74.9574 233.086,75.2907 232.5,75.5C 231.817,72.5871 230.483,70.0871 228.5,68C 229.198,65.5463 230.198,63.2129 231.5,61C 230.451,60.5078 229.451,60.6744 228.5,61.5C 228.167,61 227.833,60.5 227.5,60C 228.407,57.0356 230.407,55.2023 233.5,54.5C 233.262,56.5653 233.762,58.5653 235,60.5C 235.923,59.2412 236.757,57.9079 237.5,56.5C 239.861,59.8562 242.528,62.8562 245.5,65.5 Z"/></g>
<g><path style="opacity:0.235" fill="#5ba7c8" d="M 82.5,155.5 C 87.4513,158.471 92.7847,160.638 98.5,162C 149.5,162.667 200.5,162.667 251.5,162C 254.168,161.433 256.834,160.933 259.5,160.5C 258.833,161.167 258.167,161.833 257.5,162.5C 203.541,163.658 149.541,163.825 95.5,163C 89.6116,162.972 85.2783,160.472 82.5,155.5 Z"/></g>
<g><path style="opacity:0.404" fill="#488efa" d="M 412.5,165.5 C 412.573,167.027 411.906,168.027 410.5,168.5C 410.427,166.973 411.094,165.973 412.5,165.5 Z"/></g>
<g><path style="opacity:0.047" fill="#69b4fe" d="M 440.5,168.5 C 440.5,170.167 440.5,171.833 440.5,173.5C 439.167,172.167 437.833,172.167 436.5,173.5C 437.412,171.405 438.579,169.405 440,167.5C 440.399,167.728 440.565,168.062 440.5,168.5 Z"/></g>
<g><path style="opacity:0.968" fill="#2643d1" d="M 464.5,125.5 C 464.832,172.003 464.499,218.336 463.5,264.5C 463.832,218.33 463.499,172.33 462.5,126.5C 454.493,126.334 446.493,126.5 438.5,127C 437.809,128.067 437.309,129.234 437,130.5C 436.329,131.252 435.496,131.586 434.5,131.5C 434.933,128.805 436.266,126.638 438.5,125C 447.343,124.176 456.01,124.343 464.5,125.5 Z"/></g>
<g><path style="opacity:1" fill="#5a8aa0" d="M 70.5,168.5 C 71.1667,168.5 71.8333,168.5 72.5,168.5C 76.7114,170.437 80.3781,173.104 83.5,176.5C 78.3546,175.097 74.0213,172.43 70.5,168.5 Z"/></g>
<g><path style="opacity:0.38" fill="#4692fa" d="M 410.5,168.5 C 410.5,169.167 410.5,169.833 410.5,170.5C 409.833,170.833 409.167,171.167 408.5,171.5C 408.427,169.973 409.094,168.973 410.5,168.5 Z"/></g>
<g><path style="opacity:1" fill="#4174ea" d="M 544.5,166.5 C 543.958,169.912 542.625,172.912 540.5,175.5C 540.513,171.848 541.847,168.848 544.5,166.5 Z"/></g>
<g><path style="opacity:1" fill="#0a13e1" d="M 358.5,136.5 C 358.343,137.873 358.51,139.207 359,140.5C 360.745,142.089 361.912,144.089 362.5,146.5C 364.521,149.188 366.854,151.521 369.5,153.5C 370.356,157.544 372.022,161.211 374.5,164.5C 373.67,166.824 372.337,168.824 370.5,170.5C 369.756,169.009 369.09,167.509 368.5,166C 367.256,165.544 366.423,166.044 366,167.5C 365.105,170.466 365.605,173.133 367.5,175.5C 366.894,177.64 367.227,179.807 368.5,182C 367.953,182.925 367.287,183.758 366.5,184.5C 365.376,181.55 364.042,178.717 362.5,176C 362.833,175.667 363.167,175.333 363.5,175C 361.628,171.752 360.462,168.252 360,164.5C 358.445,162.485 356.611,162.152 354.5,163.5C 357.251,167.838 359.585,172.338 361.5,177C 360.473,177.513 359.473,178.013 358.5,178.5C 356.167,175.833 353.833,173.167 351.5,170.5C 350.605,166.162 349.605,165.829 348.5,169.5C 347.502,200.662 347.168,231.996 347.5,263.5C 340.5,263.5 333.5,263.5 326.5,263.5C 326.5,217.833 326.5,172.167 326.5,126.5C 334.528,126.169 342.528,126.502 350.5,127.5C 352.187,131.35 354.854,134.35 358.5,136.5 Z"/></g>
<g><path style="opacity:0.886" fill="#3c69e6" d="M 351.5,170.5 C 353.833,173.167 356.167,175.833 358.5,178.5C 359.167,180.5 359.833,182.5 360.5,184.5C 357.004,180.181 354.004,175.515 351.5,170.5 Z"/></g>
<g><path style="opacity:1" fill="#3963e4" d="M 557.5,174.5 C 558.5,174.5 559.5,174.5 560.5,174.5C 560.629,176.216 560.962,177.883 561.5,179.5C 561.5,180.5 561.5,181.5 561.5,182.5C 559.659,180.151 558.326,177.485 557.5,174.5 Z"/></g>
<g><path style="opacity:0.273" fill="#448ffe" d="M 634.5,125.5 C 634.168,172.003 634.501,218.336 635.5,264.5C 642.833,264.5 650.167,264.5 657.5,264.5C 658.167,263.5 658.833,262.5 659.5,261.5C 659.5,262.833 659.5,264.167 659.5,265.5C 650.833,265.5 642.167,265.5 633.5,265.5C 633.168,218.664 633.501,171.997 634.5,125.5 Z"/></g>
<g><path style="opacity:0.141" fill="#49a2fa" d="M 660.5,174.5 C 662.25,175.659 663.25,177.326 663.5,179.5C 661.75,178.341 660.75,176.674 660.5,174.5 Z"/></g>
<g><path style="opacity:1" fill="#5c6b74" d="M 240.5,178.5 C 195.003,179.499 149.336,179.832 103.5,179.5C 100.167,179.5 96.8333,179.5 93.5,179.5C 89.8379,179.277 86.5046,178.277 83.5,176.5C 86.5184,176.665 89.5184,176.498 92.5,176C 94.3473,174.297 96.1806,174.464 98,176.5C 98.3333,176.167 98.6667,175.833 99,175.5C 99.4828,176.448 99.6495,177.448 99.5,178.5C 146.5,178.5 193.5,178.5 240.5,178.5 Z"/></g>
<g><path style="opacity:0.886" fill="#507a8d" d="M 280.5,167.5 C 272.49,175.335 262.823,179.668 251.5,180.5C 201.997,180.832 152.664,180.499 103.5,179.5C 149.336,179.832 195.003,179.499 240.5,178.5C 246.868,178.83 253.202,178.496 259.5,177.5C 263.322,175.559 267.322,174.226 271.5,173.5C 271.5,172.167 271.5,170.833 271.5,169.5C 270.022,169.762 268.689,169.429 267.5,168.5C 268.333,168.167 269.167,167.833 270,167.5C 271.887,167.969 273.387,168.969 274.5,170.5C 276.302,169.014 278.302,168.014 280.5,167.5 Z"/></g>
<g><path style="opacity:1" fill="#3048e0" d="M 433.5,175.5 C 433.5,176.167 433.833,176.5 434.5,176.5C 431.22,182.441 427.553,188.108 423.5,193.5C 423.643,191.738 423.309,190.071 422.5,188.5C 423.689,187.571 425.022,187.238 426.5,187.5C 426.337,185.143 426.503,182.81 427,180.5C 428.087,182.932 428.587,182.598 428.5,179.5C 431.205,179.62 431.872,178.62 430.5,176.5C 431.325,175.614 432.325,175.281 433.5,175.5 Z"/></g>
<g><path style="opacity:0.111" fill="#66b5d2" d="M 93.5,179.5 C 96.8333,179.5 100.167,179.5 103.5,179.5C 152.664,180.499 201.997,180.832 251.5,180.5C 201.335,181.665 151.002,181.832 100.5,181C 97.9644,180.814 95.631,180.314 93.5,179.5 Z"/></g>
<g><path style="opacity:1" fill="#304edc" d="M 513.5,175.5 C 513.599,178.237 513.265,180.904 512.5,183.5C 511.391,183.557 510.391,183.89 509.5,184.5C 510.075,181.088 511.408,178.088 513.5,175.5 Z"/></g>
<g><path style="opacity:0.329" fill="#417ef0" d="M 539.5,177.5 C 538.958,180.912 537.625,183.912 535.5,186.5C 535.866,184.095 536.533,181.762 537.5,179.5C 537.747,178.287 538.414,177.62 539.5,177.5 Z"/></g>
<g><path style="opacity:1" fill="#2a48d9" d="M 585.5,176.5 C 587.341,178.849 588.674,181.515 589.5,184.5C 588.5,184.5 587.5,184.5 586.5,184.5C 586.167,181.833 585.833,179.167 585.5,176.5 Z"/></g>
<g><path style="opacity:1" fill="#3d66e4" d="M 561.5,182.5 C 562.5,182.5 563.5,182.5 564.5,182.5C 564.508,185.545 564.841,188.545 565.5,191.5C 563.408,188.912 562.075,185.912 561.5,182.5 Z"/></g>
<g><path style="opacity:1" fill="#0116ce" d="M 637.5,126.5 C 636.173,171.766 636.173,217.099 637.5,262.5C 637.669,261.603 638.002,260.603 638.5,259.5C 639.386,260.325 639.719,261.325 639.5,262.5C 645.167,262.5 650.833,262.5 656.5,262.5C 656.169,231.995 656.502,201.662 657.5,171.5C 657.5,202.5 657.5,233.5 657.5,264.5C 650.167,264.5 642.833,264.5 635.5,264.5C 634.838,218.155 635.505,172.155 637.5,126.5 Z"/></g>
<g><path style="opacity:0.615" fill="#3e83f7" d="M 325.5,125.5 C 325.5,171.833 325.5,218.167 325.5,264.5C 333.167,264.5 340.833,264.5 348.5,264.5C 348.5,232.833 348.5,201.167 348.5,169.5C 349.605,165.829 350.605,166.162 351.5,170.5C 350.637,169.537 349.97,169.537 349.5,170.5C 350.492,202.123 350.826,233.79 350.5,265.5C 341.833,265.5 333.167,265.5 324.5,265.5C 324.168,218.664 324.501,171.997 325.5,125.5 Z"/></g>
<g><path style="opacity:0.831" fill="#3f79e7" d="M 464.5,125.5 C 465.499,171.997 465.832,218.664 465.5,265.5C 457.167,265.5 448.833,265.5 440.5,265.5C 440.045,234.666 440.045,204 440.5,173.5C 440.5,171.833 440.5,170.167 440.5,168.5C 441.498,200.329 441.832,232.329 441.5,264.5C 448.833,264.5 456.167,264.5 463.5,264.5C 464.499,218.336 464.832,172.003 464.5,125.5 Z"/></g>
<g><path style="opacity:1" fill="#3c6ae7" d="M 535.5,186.5 C 534.925,189.912 533.592,192.912 531.5,195.5C 531.366,191.686 532.7,188.686 535.5,186.5 Z"/></g>
<g><path style="opacity:0.012" fill="#53a9fd" d="M 360.5,184.5 C 362.664,186.822 364.331,189.489 365.5,192.5C 364.448,192.649 363.448,192.483 362.5,192C 362.833,191.667 363.167,191.333 363.5,191C 361.829,189.157 360.829,186.991 360.5,184.5 Z"/></g>
<g><path style="opacity:0.165" fill="#478cf1" d="M 665.5,183.5 C 666.492,183.328 667.158,183.662 667.5,184.5C 668.441,186.05 669.107,187.716 669.5,189.5C 667.684,187.882 666.351,185.882 665.5,183.5 Z"/></g>
<g><path style="opacity:1" fill="#0c15e1" d="M 374.5,164.5 C 375.167,164.5 375.833,164.5 376.5,164.5C 380.911,169.648 384.578,175.314 387.5,181.5C 387.956,184.644 388.956,187.644 390.5,190.5C 390.392,191.442 390.059,192.275 389.5,193C 390.667,194.833 391.833,196.667 393,198.5C 394.41,197.213 395.91,196.046 397.5,195C 395.369,194.457 393.369,193.624 391.5,192.5C 392.786,192.524 394.12,192.19 395.5,191.5C 396.906,191.027 397.573,190.027 397.5,188.5C 399.369,186.966 400.702,184.966 401.5,182.5C 401.328,181.508 401.662,180.842 402.5,180.5C 404.822,179.198 406.155,177.198 406.5,174.5C 406.427,172.973 407.094,171.973 408.5,171.5C 409.167,171.167 409.833,170.833 410.5,170.5C 411.15,170.196 411.817,169.863 412.5,169.5C 413.382,170.76 414.382,171.926 415.5,173C 418.833,173.333 422.167,173.667 425.5,174C 424.167,174.333 422.833,174.667 421.5,175C 423.473,175.495 425.473,175.662 427.5,175.5C 427.5,174.167 427.5,172.833 427.5,171.5C 430.878,170.891 432.878,172.224 433.5,175.5C 432.325,175.281 431.325,175.614 430.5,176.5C 431.872,178.62 431.205,179.62 428.5,179.5C 428.587,182.598 428.087,182.932 427,180.5C 426.503,182.81 426.337,185.143 426.5,187.5C 425.022,187.238 423.689,187.571 422.5,188.5C 423.309,190.071 423.643,191.738 423.5,193.5C 422.094,193.973 421.427,194.973 421.5,196.5C 420.094,196.973 419.427,197.973 419.5,199.5C 417.254,200.21 414.92,200.71 412.5,201C 413.5,201.333 414.5,201.667 415.5,202C 414.809,203.067 414.309,204.234 414,205.5C 413.667,205.167 413.333,204.833 413,204.5C 412.505,206.473 412.338,208.473 412.5,210.5C 411.527,211.791 410.527,211.791 409.5,210.5C 408.534,212.396 408.201,214.396 408.5,216.5C 408.573,218.027 407.906,219.027 406.5,219.5C 405.167,219.5 403.833,219.5 402.5,219.5C 403.109,223.458 401.442,225.624 397.5,226C 400.051,227.516 399.718,228.349 396.5,228.5C 396.5,230.5 396.5,232.5 396.5,234.5C 395.448,234.649 394.448,234.483 393.5,234C 392.406,232.22 391.406,230.386 390.5,228.5C 389.735,227.388 388.735,226.721 387.5,226.5C 387.643,224.738 387.309,223.071 386.5,221.5C 384.262,220.147 382.929,218.147 382.5,215.5C 380.815,214.047 379.149,212.714 377.5,211.5C 377.5,211.167 377.5,210.833 377.5,210.5C 377.23,206.281 375.23,203.281 371.5,201.5C 371.087,199.11 370.421,196.777 369.5,194.5C 368.476,193.147 367.143,192.48 365.5,192.5C 364.331,189.489 362.664,186.822 360.5,184.5C 359.833,182.5 359.167,180.5 358.5,178.5C 359.473,178.013 360.473,177.513 361.5,177C 359.585,172.338 357.251,167.838 354.5,163.5C 356.611,162.152 358.445,162.485 360,164.5C 360.462,168.252 361.628,171.752 363.5,175C 363.167,175.333 362.833,175.667 362.5,176C 364.042,178.717 365.376,181.55 366.5,184.5C 367.287,183.758 367.953,182.925 368.5,182C 367.227,179.807 366.894,177.64 367.5,175.5C 365.605,173.133 365.105,170.466 366,167.5C 366.423,166.044 367.256,165.544 368.5,166C 369.09,167.509 369.756,169.009 370.5,170.5C 372.337,168.824 373.67,166.824 374.5,164.5 Z"/></g>
<g><path style="opacity:0.333" fill="#4395fc" d="M 397.5,188.5 C 397.573,190.027 396.906,191.027 395.5,191.5C 395.427,189.973 396.094,188.973 397.5,188.5 Z"/></g>
<g><path style="opacity:1" fill="#2534dd" d="M 387.5,181.5 C 390.167,184.833 392.833,188.167 395.5,191.5C 394.12,192.19 392.786,192.524 391.5,192.5C 393.369,193.624 395.369,194.457 397.5,195C 395.91,196.046 394.41,197.213 393,198.5C 391.833,196.667 390.667,194.833 389.5,193C 390.059,192.275 390.392,191.442 390.5,190.5C 388.956,187.644 387.956,184.644 387.5,181.5 Z"/></g>
<g><path style="opacity:0.957" fill="#3e74e8" d="M 401.5,182.5 C 400.702,184.966 399.369,186.966 397.5,188.5C 397.845,185.802 399.178,183.802 401.5,182.5 Z"/></g>
<g><path style="opacity:0.247" fill="#4a98fa" d="M 406.5,174.5 C 406.155,177.198 404.822,179.198 402.5,180.5C 403.34,178.147 404.674,176.147 406.5,174.5 Z"/></g>
<g><path style="opacity:1" fill="#3151e0" d="M 365.5,192.5 C 367.143,192.48 368.476,193.147 369.5,194.5C 370.421,196.777 371.087,199.11 371.5,201.5C 369.265,198.709 367.265,195.709 365.5,192.5 Z"/></g>
<g><path style="opacity:1" fill="#334ade" d="M 667.5,184.5 C 668.376,184.369 669.043,184.702 669.5,185.5C 671.698,189.834 674.031,194.001 676.5,198C 675.944,198.383 675.611,198.883 675.5,199.5C 673,196.506 671,193.173 669.5,189.5C 669.107,187.716 668.441,186.05 667.5,184.5 Z"/></g>
<g><path style="opacity:1" fill="#273fdb" d="M 693.5,182.5 C 700.334,192.828 706.667,203.495 712.5,214.5C 711.833,214.167 711.167,213.833 710.5,213.5C 708.958,212.699 707.292,212.366 705.5,212.5C 705.519,210.94 705.852,209.44 706.5,208C 704.535,203.897 702.202,200.064 699.5,196.5C 698.268,195.855 696.935,195.689 695.5,196C 696.574,195.261 697.241,194.261 697.5,193C 695.702,189.588 694.368,186.088 693.5,182.5 Z"/></g>
<g><path style="opacity:0.173" fill="#4895f7" d="M 423.5,193.5 C 423.573,195.027 422.906,196.027 421.5,196.5C 421.427,194.973 422.094,193.973 423.5,193.5 Z"/></g>
<g><path style="opacity:0.737" fill="#2966e3" d="M 659.5,171.5 C 658.167,197.833 658.167,224.167 659.5,250.5C 659.5,254.167 659.5,257.833 659.5,261.5C 658.833,262.5 658.167,263.5 657.5,264.5C 657.5,233.5 657.5,202.5 657.5,171.5C 658.167,170.167 658.833,170.167 659.5,171.5 Z"/></g>
<g><path style="opacity:0.247" fill="#4289f3" d="M 421.5,196.5 C 421.573,198.027 420.906,199.027 419.5,199.5C 419.427,197.973 420.094,196.973 421.5,196.5 Z"/></g>
<g><path style="opacity:1" fill="#2b4edb" d="M 505.5,193.5 C 505.802,197.38 504.469,200.38 501.5,202.5C 502.075,199.088 503.408,196.088 505.5,193.5 Z"/></g>
<g><path style="opacity:0.278" fill="#4587f7" d="M 567.5,195.5 C 569.625,198.088 570.958,201.088 571.5,204.5C 569.375,201.912 568.042,198.912 567.5,195.5 Z"/></g>
<g><path style="opacity:1" fill="#3454df" d="M 530.5,197.5 C 529.257,202.25 527.257,206.584 524.5,210.5C 525.018,207.113 525.851,203.779 527,200.5C 527.759,198.937 528.926,197.937 530.5,197.5 Z"/></g>
<g><path style="opacity:1" fill="#375ee4" d="M 675.5,200.5 C 677.078,201.066 678.412,202.066 679.5,203.5C 681.615,206.543 682.948,209.876 683.5,213.5C 680.597,209.37 677.93,205.037 675.5,200.5 Z"/></g>
<g><path style="opacity:1" fill="#355ce4" d="M 371.5,201.5 C 375.23,203.281 377.23,206.281 377.5,210.5C 374.759,208.025 372.759,205.025 371.5,201.5 Z"/></g>
<g><path style="opacity:1" fill="#334ee2" d="M 419.5,199.5 C 417.913,203.683 415.579,207.35 412.5,210.5C 412.338,208.473 412.505,206.473 413,204.5C 413.333,204.833 413.667,205.167 414,205.5C 414.309,204.234 414.809,203.067 415.5,202C 414.5,201.667 413.5,201.333 412.5,201C 414.92,200.71 417.254,200.21 419.5,199.5 Z"/></g>
<g><path style="opacity:1" fill="#2740dc" d="M 594.5,196.5 C 596.957,199.751 598.624,203.418 599.5,207.5C 598.5,207.5 597.5,207.5 596.5,207.5C 595.298,203.952 594.631,200.285 594.5,196.5 Z"/></g>
<g><path style="opacity:0.259" fill="#4695f9" d="M 572.5,206.5 C 574.293,208.426 575.293,210.759 575.5,213.5C 573.707,211.574 572.707,209.241 572.5,206.5 Z"/></g>
<g><path style="opacity:1" fill="#58889d" d="M 239.5,231.5 C 240.075,225.833 240.242,220.167 240,214.5C 237.339,210.791 233.839,209.791 229.5,211.5C 227.111,216.199 224.777,220.865 222.5,225.5C 223.039,220.679 224.205,216.012 226,211.5C 231,207.5 236,207.5 241,211.5C 242.953,218.407 242.453,225.074 239.5,231.5 Z"/></g>
<g><path style="opacity:1" fill="#3d51e3" d="M 412.5,210.5 C 411.66,212.853 410.326,214.853 408.5,216.5C 408.201,214.396 408.534,212.396 409.5,210.5C 410.527,211.791 411.527,211.791 412.5,210.5 Z"/></g>
<g><path style="opacity:0.043" fill="#54b7ff" d="M 659.5,171.5 C 660.11,172.391 660.443,173.391 660.5,174.5C 659.502,199.661 659.169,224.995 659.5,250.5C 658.167,224.167 658.167,197.833 659.5,171.5 Z"/></g>
<g><path style="opacity:1" fill="#335be0" d="M 377.5,211.5 C 379.149,212.714 380.815,214.047 382.5,215.5C 382.929,218.147 384.262,220.147 386.5,221.5C 387.309,223.071 387.643,224.738 387.5,226.5C 383.932,221.709 380.598,216.709 377.5,211.5 Z"/></g>
<g><path style="opacity:1" fill="#0b15e0" d="M 547.5,156.5 C 547.5,157.833 547.5,159.167 547.5,160.5C 545.896,161.287 545.229,162.62 545.5,164.5C 545.672,165.492 545.338,166.158 544.5,166.5C 541.847,168.848 540.513,171.848 540.5,175.5C 540.672,176.492 540.338,177.158 539.5,177.5C 538.414,177.62 537.747,178.287 537.5,179.5C 536.533,181.762 535.866,184.095 535.5,186.5C 532.7,188.686 531.366,191.686 531.5,195.5C 531.672,196.492 531.338,197.158 530.5,197.5C 528.926,197.937 527.759,198.937 527,200.5C 525.851,203.779 525.018,207.113 524.5,210.5C 524.672,211.492 524.338,212.158 523.5,212.5C 521.787,213.635 521.12,215.302 521.5,217.5C 533.5,217.5 545.5,217.5 557.5,217.5C 558.674,218.514 559.34,219.847 559.5,221.5C 559.198,225.38 560.531,228.38 563.5,230.5C 564.051,233.807 564.384,237.14 564.5,240.5C 546.453,240.82 528.453,240.487 510.5,239.5C 509.614,240.325 509.281,241.325 509.5,242.5C 508.127,242.343 506.793,242.51 505.5,243C 506.435,245.381 506.768,247.881 506.5,250.5C 506.672,251.492 506.338,252.158 505.5,252.5C 504.85,252.804 504.183,253.137 503.5,253.5C 501.676,256.968 500.676,260.635 500.5,264.5C 492.167,264.5 483.833,264.5 475.5,264.5C 475.5,263.167 475.5,261.833 475.5,260.5C 477.132,260.175 478.132,259.175 478.5,257.5C 480.317,254.051 481.317,250.384 481.5,246.5C 484.99,237.525 488.99,228.858 493.5,220.5C 495.417,219.884 496.584,218.55 497,216.5C 497.249,217.624 497.749,218.624 498.5,219.5C 498.833,219 499.167,218.5 499.5,218C 499.006,216.538 498.673,215.038 498.5,213.5C 500.282,210.039 501.282,206.372 501.5,202.5C 504.469,200.38 505.802,197.38 505.5,193.5C 506.463,190.256 507.796,187.256 509.5,184.5C 510.391,183.89 511.391,183.557 512.5,183.5C 514.491,183.318 516.491,183.818 518.5,185C 515.866,188.29 513.699,191.79 512,195.5C 511.887,199.543 510.721,203.209 508.5,206.5C 507.675,207.386 506.675,207.719 505.5,207.5C 505.338,209.527 505.505,211.527 506,213.5C 506.718,214.451 507.551,214.617 508.5,214C 509.103,212.175 509.77,210.341 510.5,208.5C 511.167,208.833 511.833,209.167 512.5,209.5C 513.153,205.765 513.986,202.099 515,198.5C 518.984,194.36 523.318,193.693 528,196.5C 530.854,193.396 532.021,189.73 531.5,185.5C 532.5,185.5 533.5,185.5 534.5,185.5C 534.44,182.979 535.106,180.646 536.5,178.5C 535.814,176.653 534.814,174.986 533.5,173.5C 534.472,170.536 534.638,167.536 534,164.5C 530.618,161.798 530.785,159.465 534.5,157.5C 535.167,160.167 535.833,162.833 536.5,165.5C 537.673,168.279 539.507,168.946 542,167.5C 543.152,164.56 544.152,161.56 545,158.5C 545.333,158.833 545.667,159.167 546,159.5C 546.232,158.263 546.732,157.263 547.5,156.5 Z"/></g>
<g><path style="opacity:1" fill="#2b44db" d="M 599.5,207.5 C 602.284,211.405 604.284,215.738 605.5,220.5C 603.338,220.103 602.005,218.769 601.5,216.5C 600.322,213.609 599.655,210.609 599.5,207.5 Z"/></g>
<g><path style="opacity:0.233" fill="#4495fc" d="M 523.5,212.5 C 523.67,213.822 523.337,214.989 522.5,216C 534.341,216.169 546.007,216.669 557.5,217.5C 545.5,217.5 533.5,217.5 521.5,217.5C 521.12,215.302 521.787,213.635 523.5,212.5 Z"/></g>
<g><path style="opacity:0.904" fill="#598ca3" d="M 121.5,230.5 C 122.075,224.833 122.242,219.167 122,213.5C 119.441,210.651 116.274,209.817 112.5,211C 109.115,213.529 106.782,216.696 105.5,220.5C 105.54,210.956 110.207,207.123 119.5,209C 122.738,211.145 124.405,214.145 124.5,218C 123.862,222.381 122.862,226.548 121.5,230.5 Z"/></g>
<g><path style="opacity:1" fill="#263ddc" d="M 501.5,202.5 C 501.282,206.372 500.282,210.039 498.5,213.5C 498.673,215.038 499.006,216.538 499.5,218C 499.167,218.5 498.833,219 498.5,219.5C 497.749,218.624 497.249,217.624 497,216.5C 496.584,218.55 495.417,219.884 493.5,220.5C 495.602,214.173 498.269,208.173 501.5,202.5 Z"/></g>
<g><path style="opacity:0.918" fill="#3f79ed" d="M 685.5,217.5 C 687.796,218.733 689.13,220.733 689.5,223.5C 687.684,221.882 686.351,219.882 685.5,217.5 Z"/></g>
<g><path style="opacity:0.196" fill="#4a94fa" d="M 576.5,215.5 C 578.625,218.088 579.958,221.088 580.5,224.5C 578.375,221.912 577.042,218.912 576.5,215.5 Z"/></g>
<g><path style="opacity:1" fill="#656666" d="M 121.5,230.5 C 121.5,230.833 121.5,231.167 121.5,231.5C 120.152,234.492 118.652,237.492 117,240.5C 115.095,253.048 112.262,265.381 108.5,277.5C 105.5,277.5 102.5,277.5 99.5,277.5C 99.4287,274.689 98.762,272.022 97.5,269.5C 98.2966,263.832 99.1299,258.165 100,252.5C 100.419,251.328 101.085,250.328 102,249.5C 102.669,239.664 103.836,229.997 105.5,220.5C 106.782,216.696 109.115,213.529 112.5,211C 116.274,209.817 119.441,210.651 122,213.5C 122.242,219.167 122.075,224.833 121.5,230.5 Z"/></g>
<g><path style="opacity:1" fill="#656667" d="M 239.5,231.5 C 237.323,240.839 234.489,250.172 231,259.5C 230.667,263.5 230.333,267.5 230,271.5C 229.042,275.076 226.708,276.743 223,276.5C 217.635,276.308 214.801,273.475 214.5,268C 215.031,265.183 215.364,262.35 215.5,259.5C 215.232,257.901 215.566,256.568 216.5,255.5C 217.693,255.03 218.36,254.03 218.5,252.5C 220.479,243.921 221.813,235.254 222.5,226.5C 222.5,226.167 222.5,225.833 222.5,225.5C 224.777,220.865 227.111,216.199 229.5,211.5C 233.839,209.791 237.339,210.791 240,214.5C 240.242,220.167 240.075,225.833 239.5,231.5 Z"/></g>
<g><path style="opacity:1" fill="#0d16e0" d="M 573.5,149.5 C 578.262,158.101 582.262,167.101 585.5,176.5C 585.833,179.167 586.167,181.833 586.5,184.5C 587.5,184.5 588.5,184.5 589.5,184.5C 591.722,188.277 593.389,192.277 594.5,196.5C 594.631,200.285 595.298,203.952 596.5,207.5C 597.5,207.5 598.5,207.5 599.5,207.5C 599.655,210.609 600.322,213.609 601.5,216.5C 602.005,218.769 603.338,220.103 605.5,220.5C 607.204,223.256 608.537,226.256 609.5,229.5C 609.061,235.181 611.061,239.514 615.5,242.5C 615.198,246.38 616.531,249.38 619.5,251.5C 621.625,254.088 622.958,257.088 623.5,260.5C 623.5,261.833 623.5,263.167 623.5,264.5C 615.167,264.5 606.833,264.5 598.5,264.5C 598.293,261.759 597.293,259.426 595.5,257.5C 594.662,257.158 594.328,256.492 594.5,255.5C 593.165,251.619 591.998,247.619 591,243.5C 590.502,241.456 589.335,240.122 587.5,239.5C 587.141,235.485 585.475,232.152 582.5,229.5C 581.559,227.95 580.893,226.284 580.5,224.5C 579.958,221.088 578.625,218.088 576.5,215.5C 575.662,215.158 575.328,214.492 575.5,213.5C 575.293,210.759 574.293,208.426 572.5,206.5C 571.662,206.158 571.328,205.492 571.5,204.5C 570.958,201.088 569.625,198.088 567.5,195.5C 566.326,194.486 565.66,193.153 565.5,191.5C 564.841,188.545 564.508,185.545 564.5,182.5C 563.5,182.5 562.5,182.5 561.5,182.5C 561.5,181.5 561.5,180.5 561.5,179.5C 562.473,180.791 563.473,180.791 564.5,179.5C 566.434,184.309 567.934,189.309 569,194.5C 569.925,193.953 570.758,193.287 571.5,192.5C 569.144,191.346 568.977,190.013 571,188.5C 573.44,189.274 574.773,190.94 575,193.5C 577.137,191.679 577.97,189.346 577.5,186.5C 574.5,186.833 573.167,185.5 573.5,182.5C 572.448,182.649 571.448,182.483 570.5,182C 569.282,179.555 569.782,177.388 572,175.5C 572.815,177.623 573.815,179.623 575,181.5C 575.249,180.376 575.749,179.376 576.5,178.5C 577.452,180.045 577.785,181.712 577.5,183.5C 578.833,183.5 580.167,183.5 581.5,183.5C 581.5,185.167 581.5,186.833 581.5,188.5C 583.59,188.55 584.923,187.55 585.5,185.5C 584.352,183.851 583.019,182.351 581.5,181C 582.167,180.333 582.833,179.667 583.5,179C 583.906,177.197 583.406,175.364 582,173.5C 579.91,172.209 578.576,172.876 578,175.5C 577.408,172.306 577.574,169.139 578.5,166C 575.814,160.798 574.147,155.298 573.5,149.5 Z"/></g>
<g><path style="opacity:1" fill="#3250dd" d="M 689.5,224.5 C 691.099,224.232 692.432,224.566 693.5,225.5C 696.036,231.112 698.369,236.779 700.5,242.5C 696.346,236.87 692.679,230.87 689.5,224.5 Z"/></g>
<g><path style="opacity:1" fill="#3050e0" d="M 406.5,219.5 C 402.689,225.778 398.856,232.111 395,238.5C 392.239,234.64 389.739,230.64 387.5,226.5C 388.735,226.721 389.735,227.388 390.5,228.5C 391.406,230.386 392.406,232.22 393.5,234C 394.448,234.483 395.448,234.649 396.5,234.5C 396.5,232.5 396.5,230.5 396.5,228.5C 399.718,228.349 400.051,227.516 397.5,226C 401.442,225.624 403.109,223.458 402.5,219.5C 403.833,219.5 405.167,219.5 406.5,219.5 Z"/></g>
<g><path style="opacity:1" fill="#2b4cdc" d="M 559.5,221.5 C 561.592,224.088 562.925,227.088 563.5,230.5C 560.531,228.38 559.198,225.38 559.5,221.5 Z"/></g>
<g><path style="opacity:1" fill="#3968e9" d="M 582.5,229.5 C 585.475,232.152 587.141,235.485 587.5,239.5C 585.326,236.485 583.659,233.151 582.5,229.5 Z"/></g>
<g><path style="opacity:1" fill="#2743db" d="M 609.5,229.5 C 611.87,233.586 613.87,237.919 615.5,242.5C 611.061,239.514 609.061,235.181 609.5,229.5 Z"/></g>
<g><path style="opacity:0.894" fill="#1b3edb" d="M 563.5,230.5 C 565.204,233.256 566.537,236.256 567.5,239.5C 548.689,241.163 529.689,242.163 510.5,242.5C 509.677,245.48 508.343,248.147 506.5,250.5C 506.768,247.881 506.435,245.381 505.5,243C 506.793,242.51 508.127,242.343 509.5,242.5C 509.281,241.325 509.614,240.325 510.5,239.5C 528.453,240.487 546.453,240.82 564.5,240.5C 564.384,237.14 564.051,233.807 563.5,230.5 Z"/></g>
<g><path style="opacity:0.027" fill="#55b9fe" d="M 567.5,239.5 C 568.404,240.209 568.737,241.209 568.5,242.5C 549.167,242.5 529.833,242.5 510.5,242.5C 529.689,242.163 548.689,241.163 567.5,239.5 Z"/></g>
<g><path style="opacity:0.984" fill="#588aa1" d="M 222.5,226.5 C 221.813,235.254 220.479,243.921 218.5,252.5C 218.36,254.03 217.693,255.03 216.5,255.5C 217.754,245.56 219.754,235.893 222.5,226.5 Z"/></g>
<g><path style="opacity:1" fill="#5a7f90" d="M 105.5,220.5 C 103.836,229.997 102.669,239.664 102,249.5C 101.085,250.328 100.419,251.328 100,252.5C 99.1299,258.165 98.2966,263.832 97.5,269.5C 98.762,272.022 99.4287,274.689 99.5,277.5C 102.5,277.5 105.5,277.5 108.5,277.5C 101.093,281.131 96.4268,278.798 94.5,270.5C 97.8854,253.64 101.552,236.974 105.5,220.5 Z"/></g>
<g><path style="opacity:1" fill="#395ee1" d="M 700.5,242.5 C 703.917,244.465 705.583,247.465 705.5,251.5C 703.44,248.76 701.774,245.76 700.5,242.5 Z"/></g>
<g><path style="opacity:1" fill="#2f50dd" d="M 615.5,242.5 C 617.592,245.088 618.925,248.088 619.5,251.5C 616.531,249.38 615.198,246.38 615.5,242.5 Z"/></g>
<g><path style="opacity:1" fill="#3b66e3" d="M 587.5,239.5 C 589.335,240.122 590.502,241.456 591,243.5C 591.998,247.619 593.165,251.619 594.5,255.5C 591.404,250.563 589.071,245.23 587.5,239.5 Z"/></g>
<g><path style="opacity:1" fill="#5a8696" d="M 121.5,231.5 C 118.782,246.706 115.282,261.706 111,276.5C 110.329,277.252 109.496,277.586 108.5,277.5C 112.262,265.381 115.095,253.048 117,240.5C 118.652,237.492 120.152,234.492 121.5,231.5 Z"/></g>
<g><path style="opacity:1" fill="#598294" d="M 161.5,235.5 C 161.076,247.206 159.41,258.706 156.5,270C 156.945,272.59 157.611,275.09 158.5,277.5C 162.415,277.753 166.081,277.087 169.5,275.5C 173.314,256.264 177.314,237.097 181.5,218C 180.008,211.582 176.008,209.249 169.5,211C 168.627,212.045 167.627,212.878 166.5,213.5C 166.916,211.248 168.249,209.748 170.5,209C 178.403,206.908 182.736,209.908 183.5,218C 179.886,237.743 175.386,257.243 170,276.5C 161.72,281.879 156.22,279.879 153.5,270.5C 155.727,258.603 158.394,246.936 161.5,235.5 Z"/></g>
<g><path style="opacity:1" fill="#294ad9" d="M 481.5,246.5 C 481.317,250.384 480.317,254.051 478.5,257.5C 478.132,259.175 477.132,260.175 475.5,260.5C 476.988,255.533 478.988,250.866 481.5,246.5 Z"/></g>
<g><path style="opacity:1" fill="#646668" d="M 161.5,235.5 C 162.166,227.821 163.833,220.487 166.5,213.5C 167.627,212.878 168.627,212.045 169.5,211C 176.008,209.249 180.008,211.582 181.5,218C 177.314,237.097 173.314,256.264 169.5,275.5C 166.081,277.087 162.415,277.753 158.5,277.5C 157.611,275.09 156.945,272.59 156.5,270C 159.41,258.706 161.076,247.206 161.5,235.5 Z"/></g>
<g><path style="opacity:0.227" fill="#4686f7" d="M 595.5,257.5 C 597.293,259.426 598.293,261.759 598.5,264.5C 596.707,262.574 595.707,260.241 595.5,257.5 Z"/></g>
<g><path style="opacity:1" fill="#355ade" d="M 505.5,252.5 C 504.352,256.787 502.685,260.787 500.5,264.5C 500.676,260.635 501.676,256.968 503.5,253.5C 504.183,253.137 504.85,252.804 505.5,252.5 Z"/></g>
<g><path style="opacity:0.656" fill="#3266eb" d="M 475.5,260.5 C 475.5,261.833 475.5,263.167 475.5,264.5C 483.833,264.5 492.167,264.5 500.5,264.5C 500.134,265.695 499.301,266.361 498,266.5C 490.678,265.202 483.344,265.202 476,266.5C 474.596,266.491 473.43,265.991 472.5,265C 473.399,263.348 474.399,261.848 475.5,260.5 Z"/></g>
<g><path style="opacity:0.648" fill="#2b65e9" d="M 623.5,260.5 C 624.338,260.842 624.672,261.508 624.5,262.5C 624.5,263.5 624.5,264.5 624.5,265.5C 622.833,265.5 621.167,265.5 619.5,265.5C 613.107,265.207 606.773,265.54 600.5,266.5C 599.478,266.145 598.811,265.478 598.5,264.5C 606.833,264.5 615.167,264.5 623.5,264.5C 623.5,263.167 623.5,261.833 623.5,260.5 Z"/></g>
<g><path style="opacity:0.503" fill="#488dfc" d="M 711.5,261.5 C 712.71,261.932 713.71,262.599 714.5,263.5C 722.65,264.493 730.983,264.826 739.5,264.5C 739.5,264.833 739.5,265.167 739.5,265.5C 731.344,266.657 723.01,266.823 714.5,266C 712.859,264.871 711.859,263.371 711.5,261.5 Z"/></g>
<g><path style="opacity:0.039" fill="#48b1fb" d="M 624.5,262.5 C 625.434,263.568 625.768,264.901 625.5,266.5C 623.265,266.795 621.265,266.461 619.5,265.5C 621.167,265.5 622.833,265.5 624.5,265.5C 624.5,264.5 624.5,263.5 624.5,262.5 Z"/></g>
<g><path style="opacity:1" fill="#58879b" d="M 239.5,231.5 C 237.097,246.779 233.597,261.779 229,276.5C 220.813,281.886 215.313,279.886 212.5,270.5C 213.136,266.608 214.136,262.942 215.5,259.5C 215.364,262.35 215.031,265.183 214.5,268C 214.801,273.475 217.635,276.308 223,276.5C 226.708,276.743 229.042,275.076 230,271.5C 230.333,267.5 230.667,263.5 231,259.5C 234.489,250.172 237.323,240.839 239.5,231.5 Z"/></g>
<g><path style="opacity:0.035" fill="#60d7ef" d="M 208.5,284.5 C 210.564,284.762 211.897,285.929 212.5,288C 209.828,288.485 208.495,287.318 208.5,284.5 Z"/></g>
<g><path style="opacity:0.265" fill="#70cbef" d="M 222.5,308.5 C 220.167,308.5 217.833,308.5 215.5,308.5C 213.189,306.044 211.522,303.211 210.5,300C 212.931,293.358 216.431,292.858 221,298.5C 223.06,301.286 224.56,304.286 225.5,307.5C 224.209,307.263 223.209,307.596 222.5,308.5 Z"/></g>
</svg>
